<?xml version="1.0" encoding="UTF-8" standalone="no"?>
<!-- Created with Inkscape (http://www.inkscape.org/) -->

<svg
   xmlns:dc="http://purl.org/dc/elements/1.1/"
   xmlns:cc="http://creativecommons.org/ns#"
   xmlns:rdf="http://www.w3.org/1999/02/22-rdf-syntax-ns#"
   xmlns:svg="http://www.w3.org/2000/svg"
   xmlns="http://www.w3.org/2000/svg"
   version="1.1"
   width="744.09448"
   height="1052.3622"
   id="svg10651">
  <defs
     id="defs10653" />
  <metadata
     id="metadata10656">
    <rdf:RDF>
      <cc:Work
         rdf:about="">
        <dc:format>image/svg+xml</dc:format>
        <dc:type
           rdf:resource="http://purl.org/dc/dcmitype/StillImage" />
        <dc:title></dc:title>
      </cc:Work>
    </rdf:RDF>
  </metadata>
  <g
     id="layer1">
    <g
       transform="matrix(23.409326,0,0,23.409326,-5.9777874,120.67011)"
       id="gear"
       style="fill:#ffffff">
      <g
         id="g9171"
         style="fill:#ffffff">
        <path
           d="m 31.67,12.602 c -0.122,-0.475 -0.521,-0.826 -1.006,-0.89 l -2.623,-0.343 c -0.057,-0.153 -0.097,-0.256 -0.102,-0.268 l -0.045,-0.107 c 0,0 -0.041,-0.092 -0.105,-0.233 L 29.401,8.663 C 29.699,8.275 29.732,7.744 29.482,7.323 29.455,7.276 28.792,6.165 27.313,4.685 25.834,3.206 24.723,2.544 24.677,2.516 24.256,2.268 23.725,2.3 23.337,2.6 L 21.24,4.211 C 21.098,4.147 21.007,4.106 21.007,4.106 20.994,4.101 20.983,4.095 20.969,4.09 L 20.871,4.05 c 0,0 -0.094,-0.036 -0.24,-0.09 L 20.288,1.336 C 20.225,0.851 19.872,0.453 19.398,0.33 19.346,0.316 18.091,0 16,0 13.909,0 12.654,0.316 12.602,0.33 12.128,0.453 11.776,0.851 11.712,1.336 L 11.369,3.96 c -0.151,0.056 -0.252,0.095 -0.262,0.099 l -0.08,0.033 c -0.012,0.004 -0.021,0.009 -0.033,0.014 0,0 -0.092,0.041 -0.233,0.105 L 8.663,2.599 C 8.275,2.3 7.744,2.269 7.323,2.517 7.276,2.545 6.166,3.207 4.685,4.687 3.207,6.166 2.544,7.277 2.517,7.324 2.267,7.745 2.3,8.276 2.598,8.665 l 1.612,2.097 c -0.064,0.141 -0.105,0.233 -0.105,0.233 l 0.006,0.002 c -0.022,0.042 -0.043,0.086 -0.061,0.131 0,0 -0.036,0.096 -0.092,0.242 L 1.335,11.713 C 0.85,11.776 0.452,12.128 0.329,12.603 0.317,12.654 0,13.909 0,16 c 0,2.092 0.317,3.346 0.33,3.398 0.123,0.474 0.521,0.826 1.006,0.89 l 2.623,0.343 c 0.057,0.151 0.096,0.253 0.1,0.262 l 0.033,0.08 c 0.004,0.012 0.009,0.022 0.014,0.033 0,0 0.041,0.093 0.105,0.233 l -1.612,2.098 c -0.298,0.388 -0.331,0.919 -0.081,1.341 0.027,0.046 0.69,1.157 2.168,2.636 1.479,1.479 2.592,2.142 2.638,2.169 0.421,0.249 0.952,0.217 1.34,-0.082 l 2.098,-1.611 c 0.142,0.064 0.233,0.105 0.233,0.105 0.012,0.004 0.021,0.009 0.033,0.014 l 0.101,0.041 c 0,0 0.095,0.037 0.241,0.091 l 0.343,2.624 c 0.063,0.485 0.416,0.883 0.891,1.006 C 12.654,31.684 13.909,32 16,32 c 2.091,0 3.346,-0.316 3.398,-0.33 0.474,-0.123 0.826,-0.521 0.89,-1.006 l 0.343,-2.624 c 0.152,-0.056 0.254,-0.096 0.266,-0.101 l 0.109,-0.045 c 0,0 0.093,-0.041 0.234,-0.105 l 2.097,1.611 c 0.389,0.299 0.92,0.331 1.341,0.082 0.047,-0.027 1.157,-0.69 2.637,-2.169 1.478,-1.479 2.141,-2.59 2.168,-2.636 0.25,-0.422 0.217,-0.953 -0.081,-1.341 L 27.79,21.238 c 0.064,-0.142 0.105,-0.234 0.105,-0.234 0.005,-0.011 0.01,-0.021 0.014,-0.032 l 0.041,-0.101 c 0,0 0.037,-0.095 0.092,-0.241 l 2.623,-0.343 c 0.485,-0.063 0.884,-0.416 1.006,-0.89 C 31.684,19.346 32,18.092 32,16 32,13.909 31.684,12.654 31.67,12.602 z m -2.191,5.422 -2.476,0.323 c -0.453,0.06 -0.833,0.37 -0.979,0.803 -0.142,0.416 -0.304,0.836 -0.304,0.836 l -0.025,0.062 c -0.035,0.08 -0.203,0.453 -0.379,0.81 -0.202,0.41 -0.154,0.899 0.125,1.262 l 1.521,1.979 c -0.295,0.383 -0.737,0.91 -1.345,1.518 -0.608,0.607 -1.136,1.051 -1.519,1.345 l -1.979,-1.521 c -0.363,-0.278 -0.852,-0.326 -1.262,-0.125 -0.391,0.193 -0.799,0.375 -0.799,0.375 0,0 0.001,0 0.002,-10e-4 l -0.055,0.022 c 0,0 -0.432,0.167 -0.857,0.312 -0.433,0.146 -0.743,0.526 -0.803,0.979 l -0.323,2.475 c -0.479,0.062 -1.165,0.123 -2.023,0.123 -0.86,0 -1.547,-0.061 -2.025,-0.123 L 13.651,27.003 C 13.591,26.55 13.28,26.17 12.848,26.024 12.432,25.881 12.013,25.72 12.013,25.72 L 11.95,25.695 C 11.87,25.659 11.498,25.492 11.14,25.316 10.732,25.114 10.242,25.162 9.878,25.44 L 7.9,26.963 C 7.517,26.668 6.989,26.226 6.381,25.618 5.774,25.01 5.331,24.481 5.036,24.099 L 6.56,22.12 C 6.838,21.758 6.887,21.268 6.685,20.858 6.506,20.498 6.338,20.123 6.304,20.046 L 6.287,20.006 C 6.284,20 6.12,19.574 5.977,19.151 5.831,18.718 5.451,18.407 4.998,18.347 L 2.521,18.024 C 2.459,17.545 2.399,16.859 2.399,16.001 c 0,-0.86 0.061,-1.547 0.123,-2.025 L 4.998,13.653 C 5.451,13.592 5.831,13.281 5.977,12.848 6.12,12.427 6.285,12 6.287,11.993 6.291,11.984 6.294,11.975 6.298,11.967 l 0,0 c 0,0 0.188,-0.422 0.387,-0.825 C 6.887,10.732 6.838,10.243 6.56,9.88 L 5.037,7.9 C 5.332,7.517 5.774,6.99 6.382,6.381 6.99,5.774 7.518,5.332 7.9,5.037 L 9.88,6.56 c 0.362,0.277 0.852,0.325 1.262,0.124 0.36,-0.178 0.736,-0.347 0.812,-0.38 L 11.993,6.288 C 12,6.285 12.428,6.12 12.85,5.976 13.283,5.83 13.593,5.45 13.653,4.997 L 13.976,2.521 C 14.454,2.459 15.141,2.398 16,2.398 c 0.859,0 1.546,0.061 2.024,0.123 l 0.323,2.476 c 0.06,0.452 0.371,0.832 0.803,0.979 0.418,0.143 0.84,0.306 0.84,0.306 l 0,0 0.061,0.023 c 0.084,0.038 0.453,0.205 0.81,0.38 0.409,0.201 0.898,0.153 1.26,-0.126 l 1.98,-1.521 c 0.382,0.295 0.91,0.737 1.518,1.344 0.607,0.609 1.05,1.138 1.345,1.52 L 25.441,9.88 c -0.279,0.362 -0.327,0.851 -0.125,1.261 0.192,0.391 0.374,0.8 0.374,0.8 V 11.94 l 0.022,0.053 c 0.002,0.006 0.167,0.435 0.312,0.857 0.147,0.432 0.526,0.742 0.979,0.803 l 2.476,0.323 c 0.062,0.479 0.122,1.165 0.122,2.024 0,0.859 -0.06,1.546 -0.122,2.024 z"
           id="path9173"
           style="fill:#ffffff" />
        <path
           d="m 16,8.36 c -4.213,0 -7.64,3.427 -7.64,7.64 0,4.213 3.427,7.64 7.64,7.64 4.213,0 7.64,-3.427 7.64,-7.64 0,-4.213 -3.427,-7.64 -7.64,-7.64 z m 0,12.881 c -2.89,0 -5.241,-2.351 -5.241,-5.241 0,-2.89 2.351,-5.241 5.241,-5.241 2.891,0 5.241,2.351 5.241,5.241 0,2.89 -2.35,5.241 -5.241,5.241 z"
           id="path9175"
           style="fill:#ffffff" />
      </g>
    </g>
  </g>
</svg>
